<svg version="1.1" xmlns="http://www.w3.org/2000/svg" xmlns:xlink="http://www.w3.org/1999/xlink" width="16" height="16" viewBox="0,0,256,256"><g fill="#fd1b43" fill-rule="nonzero" stroke="none" stroke-width="1" stroke-linecap="butt" stroke-linejoin="miter" stroke-miterlimit="10" stroke-dasharray="" stroke-dashoffset="0" font-family="none" font-weight="none" font-size="none" text-anchor="none" style="mix-blend-mode: normal"><g transform="scale(16,16)"><path d="M8,0c-1.10457,0 -2,0.89543 -2,2h-2.5c-1.10457,0 -2,0.89543 -2,2v1c0,1.10457 0.89543,2 2,2h4v0.5c0,0.27614 0.22386,0.5 0.5,0.5c0.27614,0 0.5,-0.22386 0.5,-0.5v-0.5h4c1.10457,0 2,-0.89543 2,-2v-1c0,-1.10457 -0.89543,-2 -2,-2h-2.5c0,-1.10457 -0.89543,-2 -2,-2M9,2c0,-0.55228 -0.44772,-1 -1,-1c-0.55228,0 -1,0.44772 -1,1zM5,11v2h6v-2h-1v0.5c0,0.27614 -0.22386,0.5 -0.5,0.5c-0.27614,0 -0.5,-0.22386 -0.5,-0.5v-0.5z"></path><path d="M14,7.599c-0.45615,0.26298 -0.97347,0.40128 -1.5,0.401h-3.085c-0.21123,0.60047 -0.77846,1.00223 -1.415,1.00223c-0.63654,0 -1.20377,-0.40176 -1.415,-1.00223h-3.085c-0.52653,0.00028 -1.04385,-0.13802 -1.5,-0.401v6.401c0,1.10457 0.89543,2 2,2h8c1.10457,0 2,-0.89543 2,-2zM4,10.5c0,-0.27614 0.22386,-0.5 0.5,-0.5h7c0.27614,0 0.5,0.22386 0.5,0.5v3c0,0.27614 -0.22386,0.5 -0.5,0.5h-7c-0.27614,0 -0.5,-0.22386 -0.5,-0.5z"></path></g></g></svg>